# Blender 4.5.3 LTS
# www.blender.org
o Cone
v 1.000000 0.000000 0.000000
v 0.000000 -1.000000 0.000000
v -1.000000 0.000000 0.000000
v 0.000000 1.000000 0.000000
v 0.000000 0.000000 2.000000
v 0.000000 0.000000 -2.000000
vn 0.6667 -0.6667 0.3333
vn -0.6667 -0.6667 0.3333
vn -0.6667 0.6667 0.3333
vn 0.6667 0.6667 0.3333
vn 0.6667 -0.6667 -0.3333
vn 0.6667 0.6667 -0.3333
vn -0.6667 0.6667 -0.3333
vn -0.6667 -0.6667 -0.3333
vt 0.500000 0.500000
vt 0.500000 1.000000
vt 1.000000 0.500000
vt 0.000000 0.500000
vt 0.500000 0.000000
s 0
f 1/1/1 5/2/1 2/3/1
f 2/3/2 5/2/2 3/1/2
f 3/1/3 5/2/3 4/4/3
f 4/4/4 5/2/4 1/1/4
f 2/3/5 6/5/5 1/1/5
f 1/1/6 6/5/6 4/4/6
f 4/4/7 6/5/7 3/1/7
f 3/1/8 6/5/8 2/3/8
