# Blender 4.5.3 LTS
# www.blender.org
o Icosphere
v -0.000000 -0.000000 8.485955
v -0.425228 -0.585283 8.933066
v -0.688040 0.223554 8.933066
v -0.000000 0.723448 8.933069
v 0.688040 0.223554 8.933066
v 0.425228 -0.585283 8.933066
v -0.688040 -0.223554 9.656526
v -0.425228 0.585283 9.656526
v 0.425228 0.585283 9.656526
v 0.688040 -0.223554 9.656526
v -0.000000 -0.723448 9.656523
v -0.000000 -0.000000 10.103637
v -0.404417 0.131401 8.606752
v -0.249941 -0.344018 8.606752
v -0.654362 -0.212619 8.869558
v -0.000000 -0.688039 8.869559
v 0.249941 -0.344018 8.606752
v -0.000000 0.425232 8.606754
v -0.404418 0.556636 8.869559
v 0.404417 0.131401 8.606752
v 0.404418 0.556636 8.869559
v 0.654362 -0.212619 8.869558
v -0.249942 -0.769254 9.294796
v 0.249942 -0.769254 9.294796
v -0.808841 -0.000000 9.294796
v -0.654366 -0.475425 9.294796
v -0.249942 0.769254 9.294796
v -0.654366 0.475425 9.294796
v 0.654366 0.475425 9.294796
v 0.249942 0.769254 9.294796
v 0.654366 -0.475425 9.294796
v 0.808841 -0.000000 9.294796
v -0.404418 -0.556636 9.720033
v -0.654362 0.212619 9.720034
v -0.000000 0.688039 9.720033
v 0.654362 0.212619 9.720034
v 0.404418 -0.556636 9.720033
v -0.404417 -0.131401 9.982841
v -0.000000 -0.425232 9.982838
v -0.249941 0.344018 9.982841
v 0.249941 0.344018 9.982841
v 0.404417 -0.131401 9.982841
vn -0.3151 -0.1024 -0.9435
vn -0.2680 -0.7002 -0.6617
vn -0.1947 0.2680 -0.9435
vn 0.1947 0.2680 -0.9435
vn 0.3151 -0.1024 -0.9435
vn -0.2680 -0.9050 -0.3304
vn -0.9435 -0.0247 -0.3304
vn -0.3151 0.8897 -0.3304
vn 0.7488 0.5746 -0.3304
vn 0.7779 -0.5346 -0.3304
vn -0.5831 -0.8026 -0.1256
vn -0.9435 0.3066 -0.1256
vn -0.0000 0.9921 -0.1256
vn 0.9435 0.3066 -0.1256
vn 0.5831 -0.8026 -0.1256
vn -0.6284 -0.4089 0.6617
vn -0.5831 0.4713 0.6617
vn 0.2680 0.7002 0.6617
vn 0.7488 -0.0385 0.6617
vn 0.1947 -0.7240 0.6617
vn 0.1947 -0.2680 0.9435
vn 0.3568 -0.4911 0.7947
vn 0.6284 -0.4089 0.6617
vn 0.3151 0.1024 0.9435
vn 0.5773 0.1876 0.7947
vn 0.5831 0.4713 0.6617
vn -0.0000 0.3313 0.9435
vn -0.0000 0.6071 0.7947
vn -0.2680 0.7002 0.6617
vn -0.3151 0.1024 0.9435
vn -0.5773 0.1876 0.7947
vn -0.7488 -0.0385 0.6617
vn -0.1947 -0.2680 0.9435
vn -0.3568 -0.4911 0.7947
vn -0.1947 -0.7240 0.6617
vn 0.3151 -0.8897 0.3304
vn 0.5774 -0.7947 0.1876
vn 0.7488 -0.5746 0.3304
vn 0.9435 0.0247 0.3304
vn 0.9342 0.3035 0.1876
vn 0.7779 0.5346 0.3304
vn 0.2680 0.9050 0.3304
vn -0.0000 0.9822 0.1876
vn -0.2680 0.9050 0.3304
vn -0.7779 0.5346 0.3304
vn -0.9342 0.3035 0.1876
vn -0.9435 0.0247 0.3304
vn -0.7488 -0.5746 0.3304
vn -0.5773 -0.7947 0.1876
vn -0.3151 -0.8897 0.3304
vn 0.9435 -0.3066 0.1256
vn 0.9342 -0.3035 -0.1876
vn 0.9435 -0.0247 -0.3304
vn 0.5831 0.8026 0.1256
vn 0.5773 0.7947 -0.1876
vn 0.3151 0.8897 -0.3304
vn -0.5831 0.8026 0.1256
vn -0.5773 0.7947 -0.1876
vn -0.7488 0.5746 -0.3304
vn -0.9435 -0.3066 0.1256
vn -0.9342 -0.3035 -0.1876
vn -0.7779 -0.5346 -0.3304
vn -0.0000 -0.9921 0.1256
vn -0.0000 -0.9822 -0.1876
vn 0.2680 -0.9050 -0.3304
vn 0.5831 -0.4713 -0.6617
vn 0.5773 -0.1876 -0.7947
vn 0.7488 0.0385 -0.6617
vn 0.6284 0.4089 -0.6617
vn 0.3568 0.4911 -0.7947
vn 0.1947 0.7240 -0.6617
vn -0.1947 0.7240 -0.6617
vn -0.3568 0.4911 -0.7947
vn -0.6284 0.4089 -0.6617
vn 0.2680 -0.7002 -0.6617
vn -0.0000 -0.6071 -0.7947
vn -0.0000 -0.3313 -0.9435
vn -0.7488 0.0385 -0.6617
vn -0.5773 -0.1876 -0.7947
vn -0.5831 -0.4713 -0.6617
vt 0.077200 0.057270
vt 0.084166 0.069335
vt 0.070235 0.069335
vt 0.091132 0.081400
vt 0.098098 0.069335
vt 0.105064 0.081400
vt 0.188653 0.057270
vt 0.195619 0.069335
vt 0.181687 0.069335
vt 0.160790 0.057270
vt 0.167756 0.069335
vt 0.153824 0.069335
vt 0.132927 0.057270
vt 0.139893 0.069335
vt 0.125961 0.069335
vt 0.098098 0.093466
vt 0.063269 0.081400
vt 0.077200 0.081400
vt 0.070235 0.093466
vt 0.174722 0.081400
vt 0.188653 0.081400
vt 0.181687 0.093466
vt 0.146858 0.081400
vt 0.160790 0.081400
vt 0.153824 0.093466
vt 0.118995 0.081400
vt 0.132927 0.081400
vt 0.125961 0.093466
vt 0.084166 0.093466
vt 0.056303 0.093466
vt 0.167756 0.093466
vt 0.139893 0.093466
vt 0.112029 0.093466
vt 0.077200 0.105531
vt 0.091132 0.105531
vt 0.084166 0.117596
vt 0.049337 0.105531
vt 0.063269 0.105531
vt 0.056303 0.117596
vt 0.160790 0.105531
vt 0.174722 0.105531
vt 0.167756 0.117596
vt 0.132927 0.105531
vt 0.146858 0.105531
vt 0.139893 0.117596
vt 0.105064 0.105531
vt 0.118995 0.105531
vt 0.112029 0.117596
vt 0.125961 0.117596
vt 0.118995 0.129661
vt 0.153824 0.117596
vt 0.146858 0.129661
vt 0.181687 0.117596
vt 0.174722 0.129661
vt 0.188653 0.105531
vt 0.070235 0.117596
vt 0.063269 0.129661
vt 0.098098 0.117596
vt 0.091132 0.129661
vt 0.195619 0.093466
vt 0.202585 0.081400
vt 0.112029 0.069335
vt 0.105064 0.057270
s 0
f 1/1/1 14/2/1 13/3/1
f 2/4/2 14/5/2 16/6/2
f 1/7/3 13/8/3 18/9/3
f 1/10/4 18/11/4 20/12/4
f 1/13/5 20/14/5 17/15/5
f 2/4/6 16/6/6 23/16/6
f 3/17/7 15/18/7 25/19/7
f 4/20/8 19/21/8 27/22/8
f 5/23/9 21/24/9 29/25/9
f 6/26/10 22/27/10 31/28/10
f 2/4/11 23/16/11 26/29/11
f 3/17/12 25/19/12 28/30/12
f 4/20/13 27/22/13 30/31/13
f 5/23/14 29/25/14 32/32/14
f 6/26/15 31/28/15 24/33/15
f 7/34/16 33/35/16 38/36/16
f 8/37/17 34/38/17 40/39/17
f 9/40/18 35/41/18 41/42/18
f 10/43/19 36/44/19 42/45/19
f 11/46/20 37/47/20 39/48/20
f 39/48/21 42/49/21 12/50/21
f 39/48/22 37/47/22 42/49/22
f 37/47/23 10/43/23 42/49/23
f 42/45/24 41/51/24 12/52/24
f 42/45/25 36/44/25 41/51/25
f 36/44/26 9/40/26 41/51/26
f 41/42/27 40/53/27 12/54/27
f 41/42/28 35/41/28 40/53/28
f 35/41/29 8/55/29 40/53/29
f 40/39/30 38/56/30 12/57/30
f 40/39/31 34/38/31 38/56/31
f 34/38/32 7/34/32 38/56/32
f 38/36/33 39/58/33 12/59/33
f 38/36/34 33/35/34 39/58/34
f 33/35/35 11/46/35 39/58/35
f 24/33/36 37/47/36 11/46/36
f 24/33/37 31/28/37 37/47/37
f 31/28/38 10/43/38 37/47/38
f 32/32/39 36/44/39 10/43/39
f 32/32/40 29/25/40 36/44/40
f 29/25/41 9/40/41 36/44/41
f 30/31/42 35/41/42 9/40/42
f 30/31/43 27/22/43 35/41/43
f 27/22/44 8/55/44 35/41/44
f 28/30/45 34/38/45 8/37/45
f 28/30/46 25/19/46 34/38/46
f 25/19/47 7/34/47 34/38/47
f 26/29/48 33/35/48 7/34/48
f 26/29/49 23/16/49 33/35/49
f 23/16/50 11/46/50 33/35/50
f 31/28/51 32/32/51 10/43/51
f 31/28/52 22/27/52 32/32/52
f 22/27/53 5/23/53 32/32/53
f 29/25/54 30/31/54 9/40/54
f 29/25/55 21/24/55 30/31/55
f 21/24/56 4/20/56 30/31/56
f 27/22/57 28/60/57 8/55/57
f 27/22/58 19/21/58 28/60/58
f 19/21/59 3/61/59 28/60/59
f 25/19/60 26/29/60 7/34/60
f 25/19/61 15/18/61 26/29/61
f 15/18/62 2/4/62 26/29/62
f 23/16/63 24/33/63 11/46/63
f 23/16/64 16/6/64 24/33/64
f 16/6/65 6/26/65 24/33/65
f 17/15/66 22/27/66 6/26/66
f 17/15/67 20/14/67 22/27/67
f 20/14/68 5/23/68 22/27/68
f 20/12/69 21/24/69 5/23/69
f 20/12/70 18/11/70 21/24/70
f 18/11/71 4/20/71 21/24/71
f 18/9/72 19/21/72 4/20/72
f 18/9/73 13/8/73 19/21/73
f 13/8/74 3/61/74 19/21/74
f 16/6/75 17/62/75 6/26/75
f 16/6/76 14/5/76 17/62/76
f 14/5/77 1/63/77 17/62/77
f 13/3/78 15/18/78 3/17/78
f 13/3/79 14/2/79 15/18/79
f 14/2/80 2/4/80 15/18/80
o Cylinder
v 0.400000 0.000000 -1.000000
v 0.400000 0.000000 9.000000
v 0.323607 -0.235114 -1.000000
v 0.323607 -0.235114 9.000000
v 0.123607 -0.380423 -1.000000
v 0.123607 -0.380423 9.000000
v -0.123607 -0.380423 -1.000000
v -0.123607 -0.380423 9.000000
v -0.323607 -0.235114 -1.000000
v -0.323607 -0.235114 9.000000
v -0.400000 0.000000 -1.000000
v -0.400000 0.000000 9.000000
v -0.323607 0.235114 -1.000000
v -0.323607 0.235114 9.000000
v -0.123607 0.380423 -1.000000
v -0.123607 0.380423 9.000000
v 0.123607 0.380423 -1.000000
v 0.123607 0.380423 9.000000
v 0.323607 0.235114 -1.000000
v 0.323607 0.235114 9.000000
v 0.480000 -0.000000 -1.021761
v 0.388328 -0.282137 -1.021761
v 0.148328 -0.456507 -1.021761
v -0.148328 -0.456507 -1.021761
v -0.388328 -0.282137 -1.021761
v -0.480000 -0.000000 -1.021761
v -0.388328 0.282137 -1.021761
v -0.148328 0.456507 -1.021761
v 0.148328 0.456507 -1.021761
v 0.388328 0.282137 -1.021761
v 0.480000 -0.000000 -1.321761
v 0.388328 -0.282137 -1.321761
v 0.148328 -0.456507 -1.321761
v -0.148328 -0.456507 -1.321761
v -0.388328 -0.282137 -1.321761
v -0.480000 -0.000000 -1.321761
v -0.388328 0.282137 -1.321761
v -0.148328 0.456507 -1.321761
v 0.148328 0.456507 -1.321761
v 0.388328 0.282137 -1.321761
vn 0.9511 -0.3090 -0.0000
vn 0.5878 -0.8090 -0.0000
vn -0.0000 -1.0000 -0.0000
vn -0.5878 -0.8090 -0.0000
vn -0.9511 -0.3090 -0.0000
vn -0.9511 0.3090 -0.0000
vn -0.5878 0.8090 -0.0000
vn -0.0000 1.0000 -0.0000
vn -0.0000 -0.0000 1.0000
vn 0.5878 0.8090 -0.0000
vn 0.9511 0.3090 -0.0000
vn 0.2615 -0.0850 0.9614
vn -0.0000 -0.2750 0.9614
vn 0.1616 -0.2225 0.9614
vn 0.2615 0.0850 0.9614
vn 0.1616 0.2225 0.9614
vn -0.0000 0.2750 0.9614
vn -0.1616 0.2225 0.9614
vn -0.2615 0.0850 0.9614
vn -0.2615 -0.0850 0.9614
vn -0.1616 -0.2225 0.9614
vn -0.0000 -0.0000 -1.0000
vt 0.196124 0.110475
vt 0.196124 0.190481
vt 0.180123 0.190481
vt 0.180123 0.110475
vt 0.164122 0.190481
vt 0.164122 0.110475
vt 0.148120 0.190481
vt 0.148120 0.110475
vt 0.132119 0.190481
vt 0.132119 0.110475
vt 0.116118 0.190481
vt 0.116118 0.110475
vt 0.100117 0.190481
vt 0.100117 0.110475
vt 0.084115 0.190481
vt 0.084115 0.110475
vt 0.068114 0.190481
vt 0.068114 0.110475
vt 0.098687 0.101540
vt 0.076115 0.108875
vt 0.053542 0.101540
vt 0.039591 0.082339
vt 0.039591 0.058604
vt 0.053542 0.039403
vt 0.076115 0.032068
vt 0.098687 0.039403
vt 0.112638 0.058604
vt 0.112638 0.082339
vt 0.052113 0.190481
vt 0.052113 0.110475
vt 0.036111 0.190481
vt 0.036111 0.110475
vt 0.156121 0.108875
vt 0.178694 0.101540
vt 0.192644 0.082339
vt 0.192644 0.058604
vt 0.178694 0.039403
vt 0.156121 0.032068
vt 0.133548 0.039403
vt 0.119597 0.058604
vt 0.119597 0.082339
vt 0.133548 0.101540
s 0
f 43/64/81 44/65/81 46/66/81 45/67/81
f 45/67/82 46/66/82 48/68/82 47/69/82
f 47/69/83 48/68/83 50/70/83 49/71/83
f 49/71/84 50/70/84 52/72/84 51/73/84
f 51/73/85 52/72/85 54/74/85 53/75/85
f 53/75/86 54/74/86 56/76/86 55/77/86
f 55/77/87 56/76/87 58/78/87 57/79/87
f 57/79/88 58/78/88 60/80/88 59/81/88
f 46/82/89 44/83/89 62/84/89 60/85/89 58/86/89 56/87/89 54/88/89 52/89/89 50/90/89 48/91/89
f 59/81/90 60/80/90 62/92/90 61/93/90
f 61/93/91 62/92/91 44/94/91 43/95/91
f 43/64/92 45/67/92 64/67/92 63/64/92
f 67/73/85 68/75/85 78/75/85 77/73/85
f 47/69/93 49/71/93 66/71/93 65/69/93
f 45/67/94 47/69/94 65/69/94 64/67/94
f 61/93/95 43/95/95 63/95/95 72/93/95
f 59/81/96 61/93/96 72/93/96 71/81/96
f 57/79/97 59/81/97 71/81/97 70/79/97
f 55/77/98 57/79/98 70/79/98 69/77/98
f 53/75/99 55/77/99 69/77/99 68/75/99
f 51/73/100 53/75/100 68/75/100 67/73/100
f 49/71/101 51/73/101 67/73/101 66/71/101
f 73/96/102 74/97/102 75/98/102 76/99/102 77/100/102 78/101/102 79/102/102 80/103/102 81/104/102 82/105/102
f 64/67/82 65/69/82 75/69/82 74/67/82
f 71/81/90 72/93/90 82/93/90 81/81/90
f 68/75/86 69/77/86 79/77/86 78/75/86
f 65/69/83 66/71/83 76/71/83 75/69/83
f 72/93/91 63/95/91 73/95/91 82/93/91
f 69/77/87 70/79/87 80/79/87 79/77/87
f 66/71/84 67/73/84 77/73/84 76/71/84
f 63/64/81 64/67/81 74/67/81 73/64/81
f 70/79/88 71/81/88 81/81/88 80/79/88
o Plane
v -5.817255 0.000000 8.478489
v -5.817255 -0.000000 5.143751
v -0.229419 0.000000 8.478489
v -0.229419 -0.000000 5.143751
vn -0.0000 -1.0000 -0.0000
vt 0.374505 0.587395
vt 1.000495 0.587395
vt 1.000495 1.000495
vt 0.374505 1.000495
s 0
f 83/106/103 84/107/103 86/108/103 85/109/103
