# Blender 4.5.3 LTS
# www.blender.org
mtllib leg.mtl
o Cube.001
v -0.431145 0.517898 -1.396271
v -0.431145 0.418109 -1.410802
v -0.530934 0.517898 0.191411
v -0.530934 0.418109 0.291200
v -0.431145 0.418109 0.191411
v -0.431145 0.201899 -1.410802
v -0.431145 0.102110 -1.396271
v -0.431145 0.201899 0.191411
v -0.530934 0.201899 0.291200
v -0.530934 0.102110 0.191411
v -0.747144 0.418108 -1.410802
v -0.846933 0.418108 -1.346272
v -0.747144 0.517898 -1.396271
v -0.846933 0.418108 0.191411
v -0.747144 0.418108 0.291200
v -0.747144 0.517898 0.191411
v -0.747144 0.201899 -1.410802
v -0.747144 0.102110 -1.396271
v -0.846933 0.201899 -1.346272
v -0.747144 0.102110 0.191411
v -0.747144 0.201899 0.291200
v -0.846933 0.201899 0.191411
v -0.446113 0.450540 -1.015727
v -0.316387 0.450540 -1.145453
v -0.530934 0.517898 -1.230274
v -0.446113 0.169467 -1.015727
v -0.530934 0.102110 -1.230274
v -0.316387 0.169468 -1.145453
v -0.747144 0.102110 -1.130485
v -0.846933 0.201899 -1.130485
v -0.846933 0.418108 -1.130485
v -0.747144 0.517898 -1.130485
v 0.196383 0.201899 -1.410802
v 0.296172 0.201899 -1.396271
v 0.196383 0.102110 -1.396271
v 0.196383 0.418109 -1.410802
v 0.196383 0.517898 -1.396271
v 0.296172 0.418109 -1.396271
v 0.196383 0.102110 -1.230274
v 0.296172 0.201899 -1.230274
v 0.196383 0.201899 -1.130485
v 0.196383 0.517898 -1.230274
v 0.196383 0.418109 -1.130485
v 0.296172 0.418109 -1.230274
vn -0.0000 0.7563 -0.6542
vn -0.0000 0.0722 -0.9974
vn 0.3271 0.8813 0.3410
vn 0.3416 0.3416 0.8756
vn 0.8714 0.3518 0.3419
vn -0.0000 -0.0722 -0.9974
vn -0.0000 -0.7563 -0.6542
vn 0.8714 -0.3518 0.3419
vn 0.3416 -0.3416 0.8756
vn 0.3271 -0.8813 0.3410
vn -0.2791 0.0686 -0.9578
vn -0.8659 0.2990 -0.4011
vn -0.3525 0.7189 -0.5992
vn -0.8756 0.3416 0.3416
vn -0.3416 0.3416 0.8756
vn -0.3416 0.8756 0.3416
vn -0.2791 -0.0686 -0.9578
vn -0.3525 -0.7189 -0.5992
vn -0.8659 -0.2990 -0.4011
vn -0.3416 -0.8756 0.3416
vn -0.3416 -0.3416 0.8756
vn -0.8756 -0.3416 0.3416
vn 0.8096 0.5386 0.2336
vn 0.2323 0.5449 0.8057
vn 0.0784 0.9939 0.0776
vn 0.8096 -0.5386 0.2336
vn 0.0784 -0.9939 0.0776
vn 0.2323 -0.5449 0.8057
vn -0.3827 -0.9239 -0.0000
vn -0.9239 -0.3827 -0.0000
vn -0.9239 0.3827 -0.0000
vn -0.3827 0.9239 -0.0000
vn 0.0718 -0.0718 -0.9948
vn 0.7536 -0.3053 -0.5821
vn 0.3053 -0.7536 -0.5821
vn 0.0718 0.0718 -0.9948
vn 0.3053 0.7536 -0.5821
vn 0.7536 0.3053 -0.5821
vn 0.3425 -0.8814 0.3254
vn 0.8756 -0.3416 0.3416
vn 0.3388 -0.3480 0.8742
vn 0.3425 0.8814 0.3254
vn 0.3388 0.3480 0.8742
vn 0.8756 0.3416 0.3416
vt 0.491816 0.781411
vt 0.493997 0.770409
vt 0.501384 0.778074
vt 0.436701 0.788350
vt 0.444089 0.780685
vt 0.446269 0.791688
vt 0.494307 0.899715
vt 0.494307 0.891244
vt 0.502285 0.899594
vt 0.469043 0.772218
vt 0.477179 0.767364
vt 0.474999 0.778366
vt 0.477021 0.899715
vt 0.469043 0.899594
vt 0.477021 0.891244
vt 0.463087 0.788642
vt 0.460907 0.777640
vt 0.469043 0.782494
vt 0.495105 0.855124
vt 0.504708 0.865088
vt 0.486483 0.870588
vt 0.442981 0.865400
vt 0.451603 0.880864
vt 0.433377 0.875364
vt 0.477021 0.974741
vt 0.477021 0.982555
vt 0.469043 0.974620
vt 0.494307 0.974741
vt 0.502285 0.974620
vt 0.494307 0.982555
vt 0.395030 0.891108
vt 0.385462 0.887770
vt 0.392849 0.880106
vt 0.543056 0.880832
vt 0.545237 0.869829
vt 0.552624 0.877494
vt 0.588459 0.767364
vt 0.605745 0.767364
vt 0.605745 0.775293
vt 0.588459 0.775293
vt 0.477021 0.924842
vt 0.469043 0.924721
vt 0.560602 0.881027
vt 0.560602 0.898279
vt 0.552624 0.902276
vt 0.552624 0.881027
vt 0.560602 0.767364
vt 0.577888 0.767364
vt 0.577888 0.775342
vt 0.560602 0.775342
vt 0.585866 0.881027
vt 0.585866 0.902276
vt 0.577888 0.898279
vt 0.577888 0.881027
vt 0.494307 0.924842
vt 0.502285 0.924721
vt 0.552624 0.775342
vt 0.585866 0.775342
vt 0.585866 0.871808
vt 0.608338 0.871808
vt 0.608338 0.882115
vt 0.585866 0.882115
vt 0.510263 0.891244
vt 0.523534 0.891244
vt 0.523484 0.899222
vt 0.510213 0.899222
vt 0.523534 0.924486
vt 0.510263 0.924486
vt 0.510213 0.916508
vt 0.523484 0.916508
vt 0.502285 0.916508
vt 0.502285 0.899222
vt 0.469043 0.877955
vt 0.470040 0.861284
vt 0.493622 0.882406
vt 0.542433 0.891244
vt 0.440176 0.770409
vt 0.456993 0.767364
vt 0.444463 0.892682
vt 0.468046 0.871560
vt 0.469043 0.888231
vt 0.395652 0.901520
vt 0.428290 0.862005
vt 0.388936 0.869829
s 1
usemtl Material.001
f 3/1/3 4/2/4 5/3/5
f 8/4/8 9/5/9 10/6/10
f 11/7/11 12/8/12 13/9/13
f 14/10/14 15/11/15 16/12/16
f 17/13/17 18/14/18 19/15/19
f 20/16/20 21/17/21 22/18/22
f 23/19/23 24/20/24 25/21/25
f 26/22/26 27/23/27 28/24/28
f 33/25/33 34/26/34 35/27/35
f 36/28/36 37/29/37 38/30/38
f 39/31/39 40/32/40 41/33/41
f 42/34/42 43/35/43 44/36/44
f 25/21/25 3/1/3 5/3/5 23/19/23
f 4/37/4 9/38/9 8/39/8 5/40/5
f 17/13/17 6/41/6 7/42/7 18/14/18
f 9/5/9 21/17/21 20/16/20 10/6/10
f 30/43/30 19/44/19 18/45/18 29/46/29
f 11/7/11 17/13/17 19/15/19 12/8/12
f 21/47/21 15/48/15 14/49/14 22/50/22
f 32/51/32 13/52/13 12/53/12 31/54/31
f 2/55/2 11/7/11 13/9/13 1/56/1
f 15/11/15 4/2/4 3/1/3 16/12/16
f 10/6/10 27/23/27 26/22/26 8/4/8
f 22/50/22 30/43/30 29/46/29 20/57/20
f 16/58/16 32/51/32 31/54/31 14/49/14
f 23/59/23 26/60/26 28/61/28 24/62/24
f 33/25/33 36/28/36 38/30/38 34/26/34
f 39/63/39 35/64/35 34/65/34 40/66/40
f 37/67/37 42/68/42 44/69/44 38/70/38
f 43/71/43 41/72/41 40/66/40 44/69/44
f 6/41/6 33/25/33 35/27/35 7/42/7
f 41/33/41 28/24/28 27/23/27 39/31/39
f 24/20/24 43/35/43 42/34/42 25/21/25
f 36/28/36 2/55/2 1/56/1 37/29/37
f 6/41/6 2/55/2 36/28/36 33/25/33
f 6/41/6 17/13/17 11/7/11 2/55/2
f 13/73/13 32/74/32 25/21/25 1/75/1
f 1/75/1 25/21/25 42/34/42 37/76/37
f 32/74/32 16/12/16 3/1/3 25/21/25
f 23/59/23 5/40/5 8/39/8 26/60/26
f 21/17/21 9/5/9 4/77/4 15/78/15
f 7/79/7 27/23/27 29/80/29 18/81/18
f 27/23/27 7/79/7 35/82/35 39/31/39
f 27/23/27 10/6/10 20/16/20 29/80/29
f 19/44/19 30/43/30 31/54/31 12/53/12
f 30/43/30 22/50/22 14/49/14 31/54/31
f 24/83/24 28/24/28 41/33/41 43/84/43
f 38/70/38 44/69/44 40/66/40 34/65/34
